<svg xmlns="http://www.w3.org/2000/svg" width="40" height="32.031" viewBox="0 0 40 32.031">
  <metadata><?xpacket begin="﻿" id="W5M0MpCehiHzreSzNTczkc9d"?>
<x:xmpmeta xmlns:x="adobe:ns:meta/" x:xmptk="Adobe XMP Core 5.6-c142 79.160924, 2017/07/13-01:06:39        ">
   <rdf:RDF xmlns:rdf="http://www.w3.org/1999/02/22-rdf-syntax-ns#">
      <rdf:Description rdf:about=""/>
   </rdf:RDF>
</x:xmpmeta>                     
<?xpacket end="w"?></metadata>
<defs>
    <link rel="stylesheet" href="../css/style.css"/>
  </defs>
  <path id="Forma_1" data-name="Forma 1" class="arrow" d="M1869.37,475.6h-38.75a0.614,0.614,0,0,1,0-1.228h38.75A0.614,0.614,0,0,1,1869.37,475.6ZM1854.02,491a0.624,0.624,0,0,1-.44-0.179,0.616,0.616,0,0,1,0-.87l14.93-14.968-14.93-14.962a0.615,0.615,0,1,1,.87-0.87l15.35,15.4a0.616,0.616,0,0,1,0,.87l-15.35,15.4A0.615,0.615,0,0,1,1854.02,491Z" transform="translate(-1830 -458.969)"/>
</svg>
